<svg width="24" height="29.999999999999996" xmlns="http://www.w3.org/2000/svg">
<style type="text/css">
	.st0{fill:#92FF88;}
	.st1{fill-rule:evenodd;clip-rule:evenodd;fill:#92FF88;}
</style>

 <desc>Created with Sketch.</desc>
 <g>
  <title>Layer 1</title>
  <g id="Master-Active">
   <g id="Group-2" transform="translate(1.000000, 7.000000)" fill="#FFFFFF">
    <path d="m11.79115,17.73931c0.20884,-0.62081 0.31326,-1.24163 0.31326,-1.91888c0,-2.48326 -1.5141,-4.62789 -3.70694,-5.41801c-0.10442,-0.79013 -0.78316,-1.3545 -1.5141,-1.3545s-1.40968,0.56438 -1.56631,1.3545c-1.35747,0.4515 -2.45389,1.52382 -3.13263,2.87832s-0.73095,2.99119 -0.26105,4.40214c-0.5221,0.33863 -0.83537,0.95944 -0.83537,1.58025c0.05221,0.67725 0.41768,1.24163 1.04421,1.46738c0.57431,0.22575 1.20084,0.05644 1.67073,-0.39506c1.82737,1.41094 4.28126,1.41094 6.10862,0c0.41768,0.4515 1.09642,0.62081 1.67073,0.39506c0.57431,-0.22575 0.992,-0.79013 1.04421,-1.46738c0.05221,-0.62081 -0.31326,-1.24163 -0.83537,-1.52382l0,0zm-4.90778,-7.56264c0.31326,0 0.5221,0.22575 0.5221,0.56438s-0.20884,0.56438 -0.5221,0.56438c-0.31326,0 -0.5221,-0.22575 -0.5221,-0.56438s0.20884,-0.56438 0.5221,-0.56438zm-4.17684,9.5944c-0.31326,0 -0.5221,-0.22575 -0.5221,-0.56438c0,-0.33863 0.20884,-0.56438 0.5221,-0.56438s0.5221,0.22575 0.5221,0.56438c0,0.28219 -0.26105,0.56438 -0.5221,0.56438zm4.17684,0.56438c-0.93979,0 -1.87958,-0.33863 -2.61052,-1.01588c0,-0.05644 0,-0.05644 0,-0.11288c0,-0.79013 -0.5221,-1.46738 -1.25305,-1.63669c-0.46989,-1.12875 -0.41768,-2.42682 0.05221,-3.55557s1.35747,-2.03175 2.45389,-2.42682c0.26105,0.50794 0.78316,0.84656 1.35747,0.84656s1.09642,-0.33863 1.35747,-0.903c1.67073,0.62081 2.81936,2.37038 2.81936,4.28926c0,0.62081 -0.10442,1.18519 -0.31326,1.74957c-0.73095,0.11288 -1.25305,0.84656 -1.25305,1.63669c0,0.05644 0,0.05644 0,0.11288c-0.73095,0.62081 -1.67073,1.01588 -2.61052,1.01588zm4.17684,-0.56438c-0.31326,0 -0.5221,-0.22575 -0.5221,-0.56438c0,-0.33863 0.20884,-0.56438 0.5221,-0.56438c0.31326,0 0.5221,0.22575 0.5221,0.56438c0,0.28219 -0.26105,0.56438 -0.5221,0.56438z" class="st0" id="Path_18873"/>
    <polygon points="9.493895530700684,18.077940702438354 9.493895530700684,13.337179899215698 6.883373737335205,15.651123762130737 4.27285099029541,13.337179899215698 4.27285099029541,18.077940702438354 5.317060470581055,18.077940702438354 5.317060470581055,15.70756220817566 6.883373737335205,17.118502378463745 8.449687004089355,15.70756220817566 8.449687004089355,18.077940702438354 " class="st1" id="Path_18874"/>
   </g>
  </g>
  <g id="svg_4">
   <g id="svg_3">
    <path d="m22.50455,9.03522c0.2191,-0.62036 0.32865,-1.24071 0.32865,-1.91747c0,-2.48143 -1.58847,-4.62448 -3.88901,-5.41403c-0.10955,-0.78955 -0.82162,-1.35351 -1.58847,-1.35351s-1.47892,0.56396 -1.64324,1.35351c-1.42414,0.45117 -2.57441,1.5227 -3.28649,2.8762s-0.76685,2.98899 -0.27387,4.3989c-0.54775,0.33838 -0.8764,0.95873 -0.8764,1.57909c0.05477,0.67675 0.4382,1.24071 1.0955,1.4663c0.60252,0.22558 1.25982,0.0564 1.75279,-0.39477c1.91712,1.4099 4.49153,1.4099 6.40865,0c0.4382,0.45117 1.15027,0.62036 1.75279,0.39477c0.60252,-0.22558 1.04072,-0.78955 1.0955,-1.4663c0.05477,-0.62036 -0.32865,-1.24071 -0.8764,-1.5227l0,0zm-5.14883,-7.55708c0.32865,0 0.54775,0.22558 0.54775,0.56396s-0.2191,0.56396 -0.54775,0.56396c-0.32865,0 -0.54775,-0.22558 -0.54775,-0.56396s0.2191,-0.56396 0.54775,-0.56396zm-4.38198,9.58734c-0.32865,0 -0.54775,-0.22558 -0.54775,-0.56396c0,-0.33838 0.2191,-0.56396 0.54775,-0.56396s0.54775,0.22558 0.54775,0.56396c0,0.28198 -0.27387,0.56396 -0.54775,0.56396zm4.38198,0.56396c-0.98595,0 -1.97189,-0.33838 -2.73874,-1.01513c0,-0.0564 0,-0.0564 0,-0.11279c0,-0.78955 -0.54775,-1.4663 -1.31459,-1.63549c-0.49297,-1.12792 -0.4382,-2.42503 0.05477,-3.55296s1.42414,-2.03026 2.57441,-2.42503c0.27387,0.50757 0.82162,0.84594 1.42414,0.84594s1.15027,-0.33838 1.42414,-0.90234c1.75279,0.62036 2.95784,2.36864 2.95784,4.28611c0,0.62036 -0.10955,1.18432 -0.32865,1.74828c-0.76685,0.11279 -1.31459,0.84594 -1.31459,1.63549c0,0.0564 0,0.0564 0,0.11279c-0.76685,0.62036 -1.75279,1.01513 -2.73874,1.01513zm4.38198,-0.56396c-0.32865,0 -0.54775,-0.22558 -0.54775,-0.56396c0,-0.33838 0.2191,-0.56396 0.54775,-0.56396c0.32865,0 0.54775,0.22558 0.54775,0.56396c0,0.28198 -0.27387,0.56396 -0.54775,0.56396z" class="st0" id="svg_1"/>
    <polygon points="20.094457626342773,9.373594045639038 20.094457626342773,4.636318922042847 17.35572052001953,6.948559522628784 14.616978645324707,4.636318922042847 14.616978645324707,9.373594045639038 15.712474822998047,9.373594045639038 15.712474822998047,7.004955053329468 17.35572052001953,8.414857625961304 18.998964309692383,7.004955053329468 18.998964309692383,9.373594045639038 " class="st1" id="svg_2"/>
   </g>
  </g>
  <g id="svg_8">
   <g id="svg_7">
    <path d="m23.02902,26.38906c0.22932,-0.59963 0.34398,-1.19925 0.34398,-1.85339c0,-2.3985 -1.66257,-4.46993 -4.07044,-5.23309c-0.11466,-0.76316 -0.85995,-1.30827 -1.66257,-1.30827s-1.54791,0.54511 -1.7199,1.30827c-1.49058,0.43609 -2.69451,1.47181 -3.4398,2.78008s-0.80262,2.8891 -0.28665,4.25189c-0.5733,0.32707 -0.91728,0.92669 -0.91728,1.52632c0.05733,0.65414 0.45864,1.19925 1.1466,1.4173c0.63063,0.21805 1.31859,0.05451 1.83456,-0.38158c2.00655,1.36278 4.70107,1.36278 6.70762,0c0.45864,0.43609 1.20393,0.59963 1.83456,0.38158c0.63063,-0.21805 1.08927,-0.76316 1.1466,-1.4173c0.05733,-0.59963 -0.34398,-1.19925 -0.91728,-1.47181l0,0zm-5.38903,-7.30452c0.34398,0 0.5733,0.21805 0.5733,0.54511s-0.22932,0.54511 -0.5733,0.54511c-0.34398,0 -0.5733,-0.21805 -0.5733,-0.54511s0.22932,-0.54511 0.5733,-0.54511zm-4.58641,9.26693c-0.34398,0 -0.5733,-0.21805 -0.5733,-0.54511c0,-0.32707 0.22932,-0.54511 0.5733,-0.54511s0.5733,0.21805 0.5733,0.54511c0,0.27256 -0.28665,0.54511 -0.5733,0.54511zm4.58641,0.54511c-1.03194,0 -2.06388,-0.32707 -2.8665,-0.9812c0,-0.05451 0,-0.05451 0,-0.10902c0,-0.76316 -0.5733,-1.4173 -1.37592,-1.58083c-0.51597,-1.09023 -0.45864,-2.34399 0.05733,-3.43422s1.49058,-1.96241 2.69451,-2.34399c0.28665,0.4906 0.85995,0.81767 1.49058,0.81767s1.20393,-0.32707 1.49058,-0.87218c1.83456,0.59963 3.09582,2.28948 3.09582,4.14286c0,0.59963 -0.11466,1.14474 -0.34398,1.68985c-0.80262,0.10902 -1.37592,0.81767 -1.37592,1.58083c0,0.05451 0,0.05451 0,0.10902c-0.80262,0.59963 -1.83456,0.9812 -2.8665,0.9812zm4.58641,-0.54511c-0.34398,0 -0.5733,-0.21805 -0.5733,-0.54511c0,-0.32707 0.22932,-0.54511 0.5733,-0.54511c0.34398,0 0.5733,0.21805 0.5733,0.54511c0,0.27256 -0.28665,0.54511 -0.5733,0.54511z" class="st0" id="svg_5"/>
    <polygon points="20.506502141446163,26.716123483715364 20.506502141446163,22.137167233010814 17.639995378570802,24.372132884443317 14.773495003501694,22.137167233010814 14.773495003501694,26.716123483715364 15.920095579383087,26.716123483715364 15.920095579383087,24.426646422997464 17.639995378570802,25.789431655132375 19.35990156556477,24.426646422997464 19.35990156556477,26.716123483715364 " class="st1" id="svg_6"/>
   </g>
  </g>
 </g>
</svg>